<svg width="16" height="5" viewBox="0 0 16 5" fill="none" xmlns="http://www.w3.org/2000/svg">
<path d="M15.6758 0.0625H0.324219C0.317187 0.0625 0.3125 0.0671875 0.3125 0.0742188V2.21172C0.3125 3.61328 1.46094 4.75 2.87422 4.75C3.82812 4.75 4.66016 4.23437 5.10312 3.46797C5.17109 3.34844 5.3 3.27344 5.43828 3.27344C5.57656 3.27344 5.70312 3.34844 5.77344 3.46797C6.21406 4.23437 7.04609 4.75 8 4.75C8.95625 4.75 9.79062 4.23203 10.2289 3.46328C10.2969 3.34609 10.4211 3.27344 10.5547 3.27344H10.5687C10.7047 3.27344 10.8266 3.34609 10.8945 3.46328C11.3352 4.23203 12.1695 4.75 13.1258 4.75C14.5391 4.75 15.6875 3.61328 15.6875 2.21172V0.0742188C15.6875 0.0671875 15.6828 0.0625 15.6758 0.0625Z" fill="#E6F7FF"/>
</svg>
